<svg width="767" height="977" viewBox="0 0 767 977" fill="none" xmlns="http://www.w3.org/2000/svg">
<g clip-path="url(#clip0)">
<g opacity="0.5">
<path opacity="0.5" d="M792.644 202.066L410.418 110.676L284.146 638.789L666.372 730.18L792.644 202.066Z" fill="url(#paint0_linear)"/>
</g>
<g filter="url(#filter0_d)">
<path d="M786.851 204.794L414.351 115.729L290.869 632.171L663.369 721.237L786.851 204.794Z" fill="white"/>
</g>
<path d="M696.743 168.834L511.952 124.65L501.25 169.408L686.042 213.592L696.743 168.834Z" fill="url(#paint1_linear)"/>
<path d="M694.794 168.388L513.893 125.134L503.661 167.928L684.562 211.182L694.794 168.388Z" fill="#C9C9DA"/>
<path d="M491.611 222.626L411.859 203.557L392.79 283.309L472.542 302.378L491.611 222.626Z" fill="url(#paint2_linear)"/>
<path d="M454.094 380.736L374.342 361.667L355.273 441.419L435.025 460.488L454.094 380.736Z" fill="url(#paint3_linear)"/>
<path d="M417.043 536.901L337.291 517.832L318.222 597.584L397.974 616.653L417.043 536.901Z" fill="url(#paint4_linear)"/>
<path d="M487.995 224.846L414.079 207.172L396.405 281.089L470.322 298.762L487.995 224.846Z" fill="#69F0AE"/>
<path d="M450.555 381.432L376.639 363.758L358.965 437.675L432.882 455.348L450.555 381.432Z" fill="#6C63FF"/>
<path d="M413.115 538.018L339.199 520.345L321.525 594.261L395.442 611.935L413.115 538.018Z" fill="#6C63FF"/>
<path d="M632.483 283.514L531.169 259.29L529.478 266.361L630.793 290.585L632.483 283.514Z" fill="#B4B4B4"/>
<path d="M695.917 309.899L528.632 269.901L526.941 276.971L694.226 316.969L695.917 309.899Z" fill="#B4B4B4"/>
<path d="M681.604 317.684L526.097 280.502L524.407 287.573L679.913 324.754L681.604 317.684Z" fill="#B4B4B4"/>
<path d="M595.043 440.1L493.729 415.876L492.038 422.947L593.353 447.171L595.043 440.1Z" fill="#B4B4B4"/>
<path d="M658.477 466.485L491.192 426.487L489.501 433.558L656.786 473.556L658.477 466.485Z" fill="#B4B4B4"/>
<path d="M644.164 474.27L488.657 437.088L486.967 444.159L642.473 481.341L644.164 474.27Z" fill="#B4B4B4"/>
<path d="M557.603 596.687L456.289 572.462L454.599 579.533L555.913 603.757L557.603 596.687Z" fill="#B4B4B4"/>
<path d="M621.037 623.071L453.752 583.073L452.061 590.144L619.346 630.142L621.037 623.071Z" fill="#B4B4B4"/>
<path d="M606.724 630.856L451.217 593.674L449.527 600.745L605.033 637.927L606.724 630.856Z" fill="#B4B4B4"/>
<path d="M426.477 244.55L436.954 260.072L462.654 236.656L468.028 243.853L434.28 271.257L420.347 245.459L426.477 244.55Z" fill="url(#paint5_linear)"/>
<path d="M428.542 245.589L437.655 259.078L460.002 238.716L464.675 244.974L435.329 268.803L423.214 246.371L428.542 245.589Z" fill="white"/>
<path d="M390.869 403.147L399.982 416.636L422.33 396.275L427.003 402.533L397.657 426.362L385.541 403.93L390.869 403.147Z" fill="white"/>
<path d="M353.197 560.706L362.31 574.195L384.657 553.834L389.33 560.092L359.984 583.921L347.869 561.489L353.197 560.706Z" fill="white"/>
<g opacity="0.5">
<path opacity="0.5" d="M736.941 493.091L742.776 494.486" stroke="#69F0AE" stroke-width="5" stroke-miterlimit="10"/>
<path opacity="0.5" d="M754 497.17L883.052 528.026" stroke="#69F0AE" stroke-width="5" stroke-miterlimit="10" stroke-dasharray="11.54 11.54"/>
</g>
<path opacity="0.5" d="M368.125 231.657L237.799 200.496L208.498 323.042" stroke="#69F0AE" stroke-width="5" stroke-miterlimit="10" stroke-dasharray="12 12"/>
<path opacity="0.5" d="M573.49 707.972L542.329 838.298L783.53 895.97" stroke="#69F0AE" stroke-width="5" stroke-miterlimit="10" stroke-dasharray="12 12"/>
<g opacity="0.5">
<path opacity="0.5" d="M309.462 358.749L111.055 311.31L77.4517 451.849L275.859 499.288L309.462 358.749Z" fill="url(#paint6_linear)"/>
</g>
<g filter="url(#filter1_d)">
<path d="M302.638 361.488L115.902 316.839L84.2756 449.11L271.012 493.759L302.638 361.488Z" fill="white"/>
</g>
<path d="M205.126 373.48C203.564 373.11 201.98 372.841 200.383 372.675L196.522 409.466L161.196 398.49C160.959 399.266 160.729 400.055 160.536 400.862C158.834 407.979 159.281 415.441 161.821 422.304C164.36 429.168 168.877 435.124 174.802 439.42C180.726 443.716 187.791 446.158 195.103 446.439C202.416 446.719 209.647 444.825 215.884 440.996C222.12 437.166 227.08 431.574 230.137 424.925C233.195 418.277 234.212 410.871 233.061 403.644C231.91 396.417 228.641 389.694 223.669 384.325C218.696 378.956 212.243 375.182 205.126 373.48Z" fill="#E0E0E0"/>
<path d="M194.23 364.007C185.721 363.115 177.166 365.2 170.021 369.907C162.876 374.614 157.583 381.651 155.043 389.822L190.369 400.798L194.23 364.007Z" fill="#6C63FF"/>
</g>
<defs>
<filter id="filter0_d" x="258.869" y="91.7286" width="559.982" height="669.508" filterUnits="userSpaceOnUse" color-interpolation-filters="sRGB">
<feFlood flood-opacity="0" result="BackgroundImageFix"/>
<feColorMatrix in="SourceAlpha" type="matrix" values="0 0 0 0 0 0 0 0 0 0 0 0 0 0 0 0 0 0 127 0"/>
<feOffset dy="8"/>
<feGaussianBlur stdDeviation="16"/>
<feColorMatrix type="matrix" values="0 0 0 0 0 0 0 0 0 0 0 0 0 0 0 0 0 0 0.25 0"/>
<feBlend mode="normal" in2="BackgroundImageFix" result="effect1_dropShadow"/>
<feBlend mode="normal" in="SourceGraphic" in2="effect1_dropShadow" result="shape"/>
</filter>
<filter id="filter1_d" x="73.2755" y="312.839" width="240.363" height="198.92" filterUnits="userSpaceOnUse" color-interpolation-filters="sRGB">
<feFlood flood-opacity="0" result="BackgroundImageFix"/>
<feColorMatrix in="SourceAlpha" type="matrix" values="0 0 0 0 0 0 0 0 0 0 0 0 0 0 0 0 0 0 127 0"/>
<feOffset dy="7"/>
<feGaussianBlur stdDeviation="5.5"/>
<feColorMatrix type="matrix" values="0 0 0 0 0 0 0 0 0 0 0 0 0 0 0 0 0 0 0.25 0"/>
<feBlend mode="normal" in2="BackgroundImageFix" result="effect1_dropShadow"/>
<feBlend mode="normal" in="SourceGraphic" in2="effect1_dropShadow" result="shape"/>
</filter>
<linearGradient id="paint0_linear" x1="475.259" y1="684.485" x2="601.531" y2="156.371" gradientUnits="userSpaceOnUse">
<stop stop-color="#808080" stop-opacity="0.25"/>
<stop offset="0.54" stop-color="#808080" stop-opacity="0.12"/>
<stop offset="1" stop-color="#808080" stop-opacity="0.1"/>
</linearGradient>
<linearGradient id="paint1_linear" x1="81123.4" y1="23704.8" x2="81615.9" y2="21645" gradientUnits="userSpaceOnUse">
<stop stop-color="#808080" stop-opacity="0.25"/>
<stop offset="0.54" stop-color="#808080" stop-opacity="0.12"/>
<stop offset="1" stop-color="#808080" stop-opacity="0.1"/>
</linearGradient>
<linearGradient id="paint2_linear" x1="20686.7" y1="24190" x2="22250.4" y2="17650.3" gradientUnits="userSpaceOnUse">
<stop stop-color="#808080" stop-opacity="0.25"/>
<stop offset="0.54" stop-color="#808080" stop-opacity="0.12"/>
<stop offset="1" stop-color="#808080" stop-opacity="0.1"/>
</linearGradient>
<linearGradient id="paint3_linear" x1="17572.9" y1="37313.1" x2="19136.5" y2="30773.5" gradientUnits="userSpaceOnUse">
<stop stop-color="#808080" stop-opacity="0.25"/>
<stop offset="0.54" stop-color="#808080" stop-opacity="0.12"/>
<stop offset="1" stop-color="#808080" stop-opacity="0.1"/>
</linearGradient>
<linearGradient id="paint4_linear" x1="14497.6" y1="50274.8" x2="16061.3" y2="43735.2" gradientUnits="userSpaceOnUse">
<stop stop-color="#808080" stop-opacity="0.25"/>
<stop offset="0.54" stop-color="#808080" stop-opacity="0.12"/>
<stop offset="1" stop-color="#808080" stop-opacity="0.1"/>
</linearGradient>
<linearGradient id="paint5_linear" x1="12301.9" y1="11577.3" x2="12678.7" y2="10001.3" gradientUnits="userSpaceOnUse">
<stop stop-color="#808080" stop-opacity="0.25"/>
<stop offset="0.54" stop-color="#808080" stop-opacity="0.12"/>
<stop offset="1" stop-color="#808080" stop-opacity="0.1"/>
</linearGradient>
<linearGradient id="paint6_linear" x1="4748.46" y1="70395.2" x2="9604.08" y2="50087.3" gradientUnits="userSpaceOnUse">
<stop stop-color="#808080" stop-opacity="0.25"/>
<stop offset="0.54" stop-color="#808080" stop-opacity="0.12"/>
<stop offset="1" stop-color="#808080" stop-opacity="0.1"/>
</linearGradient>
<clipPath id="clip0">
<rect width="873.56" height="795" fill="white" transform="translate(185.411 0.325806) rotate(13.447)"/>
</clipPath>
</defs>
</svg>
